<?xml version="1.0" encoding="UTF-8"?>
<svg version="1.1" xmlns="http://www.w3.org/2000/svg" width="283" height="226">
<path d="M0 0 C93.39 0 186.78 0 283 0 C283 74.58 283 149.16 283 226 C189.61 226 96.22 226 0 226 C0 151.42 0 76.84 0 0 Z " fill="#FEFEFE" transform="translate(0,0)"/>
<path d="M0 0 C0.83789062 -0.01224609 1.67578125 -0.02449219 2.5390625 -0.03710938 C10.42189074 -0.05541316 17.6212402 0.85277795 24.4375 5.0625 C25.26121094 5.55492187 26.08492188 6.04734375 26.93359375 6.5546875 C29.12371254 8.28525395 29.9824575 9.61862223 31 12.1875 C30.47792969 11.78917969 29.95585937 11.39085937 29.41796875 10.98046875 C20.04340054 4.23274978 11.59543099 2.94358205 0.25 2.875 C-0.64944336 2.86936035 -1.54888672 2.8637207 -2.47558594 2.85791016 C-7.66983425 2.91472526 -12.02407287 3.54742452 -17 5.1875 C-18.49547395 5.50154953 -19.99543394 5.79538501 -21.5 6.0625 C-30.8369597 7.88712724 -40.19524736 10.04121873 -48.80078125 14.171875 C-59.66153846 19.1875 -59.66153846 19.1875 -64 19.1875 C-64 19.8475 -64 20.5075 -64 21.1875 C-63.2884375 21.29320313 -62.576875 21.39890625 -61.84375 21.5078125 C-50.20191237 24.29033963 -39.11925952 34.75920292 -31 43.1875 C-31.33 43.8475 -31.66 44.5075 -32 45.1875 C-32.57105469 44.630625 -33.14210937 44.07375 -33.73046875 43.5 C-42.51639393 35.23089394 -56.851797 22.99574616 -69.6875 23.23828125 C-74.65208077 24.66091465 -79.01535948 27.01686214 -83.5625 29.4375 C-84.57610596 29.9732666 -85.58971191 30.5090332 -86.6340332 31.06103516 C-109.42085283 43.26338681 -131.02709096 57.77794637 -151 74.1875 C-151.82056885 74.86159912 -151.82056885 74.86159912 -152.65771484 75.54931641 C-160.67333923 82.16989805 -168.44020643 89.05016548 -176 96.1875 C-176.928125 96.98800781 -177.85625 97.78851563 -178.8125 98.61328125 C-182.26908469 102.68094073 -181.55550243 106.10221505 -181.3515625 111.23828125 C-179.3821493 133.36135615 -170.64888854 151.26016148 -155 167.1875 C-154.39929688 167.80109375 -153.79859375 168.4146875 -153.1796875 169.046875 C-134.09322851 187.05920427 -111.21323446 190.21216436 -86 191.1875 C-86 191.5175 -86 191.8475 -86 192.1875 C-116.70644338 193.10823293 -139.58268264 187.9408383 -162.625 166.5546875 C-178.60480715 150.6274455 -185.97111482 131.12844877 -189 109.1875 C-205.19223228 127.27306485 -225.10629924 150.60155522 -225.4375 176 C-225.44789307 176.70568115 -225.45828613 177.4113623 -225.46899414 178.13842773 C-225.36392358 184.27817131 -223.78779365 188.91212627 -219.9375 193.8125 C-209.66031311 202.12171494 -198.76731684 202.43513397 -186 203.1875 C-186 203.5175 -186 203.8475 -186 204.1875 C-190.14559093 204.30477273 -194.29074862 204.37510933 -198.4375 204.4375 C-199.60216797 204.47101563 -200.76683594 204.50453125 -201.96679688 204.5390625 C-211.19139868 204.64300168 -218.32687069 203.1053084 -225.375 196.875 C-226.31472656 196.07642578 -226.31472656 196.07642578 -227.2734375 195.26171875 C-233.31052973 188.00901292 -232.83263154 179.3565125 -232.24560547 170.43408203 C-229.67176837 146.89089222 -207.641192 119.81619512 -190.38525391 104.78051758 C-188.6902419 102.83128365 -188.56755947 101.78313836 -188.41015625 99.23046875 C-188.35061768 98.45469482 -188.2910791 97.6789209 -188.22973633 96.87963867 C-188.17454834 96.05310791 -188.11936035 95.22657715 -188.0625 94.375 C-185.92349514 70.10314097 -174.72896119 48.95956075 -156 33.1875 C-136.72114211 18.09235583 -114.36232421 11.1491002 -90 13.1875 C-85.77442075 13.7241096 -81.64138228 14.52599723 -77.48046875 15.43359375 C-75.75763672 15.80677734 -75.75763672 15.80677734 -74 16.1875 C-72.88753906 16.45820313 -71.77507812 16.72890625 -70.62890625 17.0078125 C-65.6541057 17.25414277 -62.23571374 15.6263794 -57.75 13.625 C-50.85154978 10.70531331 -43.96483691 8.0456376 -36.8125 5.8125 C-36.06000977 5.5745874 -35.30751953 5.3366748 -34.53222656 5.09155273 C-23.06523166 1.5606039 -11.9884543 0.00922189 0 0 Z " fill="#D66676" transform="translate(238,8.8125)"/>
<path d="M0 0 C1.05743408 -0.00563965 2.11486816 -0.0112793 3.2043457 -0.01708984 C9.79132753 0.04373368 15.9106159 0.75634423 22.3125 2.3125 C19.35893979 4.65105931 16.34932656 6.44180168 13.0078125 8.17578125 C11.43676758 9.00057983 11.43676758 9.00057983 9.83398438 9.84204102 C8.71314453 10.43041748 7.59230469 11.01879395 6.4375 11.625 C-18.03933537 24.6576563 -40.60873395 40.16200134 -61.93017578 57.86376953 C-63.53249906 59.1847179 -65.15397666 60.48234421 -66.77734375 61.77734375 C-72.49480026 66.34008253 -77.70813801 71.176158 -82.7890625 76.44140625 C-84.6875 78.3125 -84.6875 78.3125 -85.6875 78.3125 C-85.26782773 59.96137627 -76.79370365 42.80899206 -64.6875 29.3125 C-63.87539062 28.40628906 -63.06328125 27.50007813 -62.2265625 26.56640625 C-45.5854156 8.97363952 -24.09280457 0.12287769 0 0 Z " fill="#FCFCFC" transform="translate(141.6875,26.6875)"/>
<path d="M0 0 C-0.66 0.66 -1.32 1.32 -2 2 C-4.16015625 1.9765625 -4.16015625 1.9765625 -7.0625 1.625 C-34.39160494 -0.83461944 -58.13874441 1.622119 -80.41796875 18.82421875 C-96.76000351 32.59504078 -110.28384939 52.2285149 -112.1875 74.16015625 C-112.22875 74.76730469 -112.27 75.37445313 -112.3125 76 C-113 79 -113 79 -116.0625 81.4375 C-117.031875 81.953125 -118.00125 82.46875 -119 83 C-119.86887648 61.18154611 -111.75252067 41.95838943 -97.5625 25.6875 C-73.20493004 -0.0162569 -34.46369217 -15.04108008 0 0 Z " fill="#0F79AD" transform="translate(169,27)"/>
<path d="M0 0 C0.83789062 -0.01224609 1.67578125 -0.02449219 2.5390625 -0.03710938 C10.42189074 -0.05541316 17.6212402 0.85277795 24.4375 5.0625 C25.26121094 5.55492187 26.08492187 6.04734375 26.93359375 6.5546875 C29.12371254 8.28525395 29.9824575 9.61862223 31 12.1875 C30.47792969 11.78917969 29.95585937 11.39085937 29.41796875 10.98046875 C20.04340054 4.23274978 11.59543099 2.94358205 0.25 2.875 C-0.64944336 2.86936035 -1.54888672 2.8637207 -2.47558594 2.85791016 C-7.66983425 2.91472526 -12.02407287 3.54742452 -17 5.1875 C-18.49547395 5.50154953 -19.99543394 5.79538501 -21.5 6.0625 C-30.8369597 7.88712724 -40.19524736 10.04121873 -48.80078125 14.171875 C-59.66153846 19.1875 -59.66153846 19.1875 -64 19.1875 C-64 19.8475 -64 20.5075 -64 21.1875 C-63.2884375 21.29320313 -62.576875 21.39890625 -61.84375 21.5078125 C-50.20191237 24.29033963 -39.11925952 34.75920292 -31 43.1875 C-31.495 44.1775 -31.495 44.1775 -32 45.1875 C-32.57105469 44.630625 -33.14210938 44.07375 -33.73046875 43.5 C-42.51639393 35.23089394 -56.851797 22.99574616 -69.6875 23.23828125 C-74.65213664 24.66093066 -79.01519358 27.01707987 -83.5625 29.4375 C-84.57175537 29.97036621 -85.58101074 30.50323242 -86.62084961 31.05224609 C-101.12018397 38.81041377 -115.11130268 47.34116715 -128.08984375 57.45703125 C-131.37506613 59.4105259 -133.24459628 59.5624807 -137 59.1875 C-133.11243095 54.98226967 -128.95901285 51.98209059 -124.125 48.9375 C-123.37033447 48.45716309 -122.61566895 47.97682617 -121.83813477 47.48193359 C-119.56441882 46.04120562 -117.28370187 44.6123347 -115 43.1875 C-114.07501709 42.60693848 -114.07501709 42.60693848 -113.13134766 42.01464844 C-108.80662604 39.31306524 -104.42337077 36.72403276 -100 34.1875 C-98.72672852 33.45660156 -98.72672852 33.45660156 -97.42773438 32.7109375 C-67.86129575 15.88686731 -34.67595909 0.02667381 0 0 Z " fill="#D76979" transform="translate(238,8.8125)"/>
<path d="M0 0 C0.04487549 0.58378418 0.08975098 1.16756836 0.13598633 1.76904297 C0.35025245 4.47205142 0.58129749 7.17338952 0.8125 9.875 C0.88275391 10.7928125 0.95300781 11.710625 1.02539062 12.65625 C2.82673851 33.119562 12.76583492 50.51255796 27 65 C27.60070312 65.61359375 28.20140625 66.2271875 28.8203125 66.859375 C47.90677149 84.87170427 70.78676554 88.02466436 96 89 C96 89.33 96 89.66 96 90 C65.29355662 90.92073293 42.41731736 85.7533383 19.375 64.3671875 C5.64766386 50.68500707 -3.95004771 32.33603648 -6 13 C-6.09539063 12.22398438 -6.19078125 11.44796875 -6.2890625 10.6484375 C-6.5754525 6.62390429 -6.14157801 5.17424985 -3.5625 2 C-1 0 -1 0 0 0 Z " fill="#167CAF" transform="translate(56,111)"/>
<path d="M0 0 C0.83789062 -0.01224609 1.67578125 -0.02449219 2.5390625 -0.03710938 C10.42189074 -0.05541316 17.6212402 0.85277795 24.4375 5.0625 C25.26121094 5.55492187 26.08492188 6.04734375 26.93359375 6.5546875 C29.12371254 8.28525395 29.9824575 9.61862223 31 12.1875 C30.47792969 11.78917969 29.95585937 11.39085937 29.41796875 10.98046875 C20.04340054 4.23274978 11.59543099 2.94358205 0.25 2.875 C-0.64944336 2.86936035 -1.54888672 2.8637207 -2.47558594 2.85791016 C-7.66983425 2.91472526 -12.02407287 3.54742452 -17 5.1875 C-18.49547395 5.50154953 -19.99543394 5.79538501 -21.5 6.0625 C-31.05455966 7.92965059 -40.65691355 10.08980428 -49.36328125 14.55078125 C-49.90339844 14.76089844 -50.44351563 14.97101562 -51 15.1875 C-51.66 14.8575 -52.32 14.5275 -53 14.1875 C-53 13.1975 -53 12.2075 -53 11.1875 C-45.55292254 8.34319334 -38.09337943 5.98634765 -30.375 4 C-29.40304688 3.74025391 -28.43109375 3.48050781 -27.4296875 3.21289062 C-18.22786052 0.81967353 -9.48702282 0.00729771 0 0 Z " fill="#DB7482" transform="translate(238,8.8125)"/>
<path d="M0 0 C-0.66 0.66 -1.32 1.32 -2 2 C-4.46557617 1.97875977 -4.46557617 1.97875977 -7.60546875 1.62890625 C-15.52206487 0.88839533 -23.37337059 0.88828093 -31.3125 0.9375 C-32.7467432 0.94253243 -34.18098815 0.94709221 -35.61523438 0.95117188 C-39.07685998 0.96202241 -42.53841822 0.9791876 -46 1 C-46.33 -0.65 -46.66 -2.3 -47 -4 C-32.13527984 -6.98256521 -13.97086785 -6.09734271 0 0 Z " fill="#0673A9" transform="translate(169,27)"/>
<path d="M0 0 C14.45158095 1.81967198 25.74781341 13.56113928 36 23 C35.67 23.66 35.34 24.32 35 25 C34.42894531 24.443125 33.85789063 23.88625 33.26953125 23.3125 C23.1116518 13.75214287 11.71628342 7.49443342 -1 2 C-0.67 1.34 -0.34 0.68 0 0 Z " fill="#1F7FB0" transform="translate(171,29)"/>
<path d="M0 0 C0.8559375 -0.01224609 1.711875 -0.02449219 2.59375 -0.03710938 C10.55236067 -0.05519713 17.80204063 0.81004029 24.6875 5.0625 C25.51121094 5.55492187 26.33492188 6.04734375 27.18359375 6.5546875 C29.37371254 8.28525395 30.2324575 9.61862223 31.25 12.1875 C30.72792969 11.78917969 30.20585937 11.39085937 29.66796875 10.98046875 C28.93191406 10.45066406 28.19585937 9.92085937 27.4375 9.375 C26.72980469 8.85292969 26.02210938 8.33085937 25.29296875 7.79296875 C15.93252424 2.85440303 6.44036459 2.79793474 -3.9375 3 C-5.28449006 3.01509096 -6.63149668 3.02877148 -7.97851562 3.04101562 C-11.23611152 3.07604354 -14.49283173 3.12516338 -17.75 3.1875 C-12.24618581 -0.48170946 -6.41189229 0.00474252 0 0 Z " fill="#D55E6F" transform="translate(237.75,8.8125)"/>
<path d="M0 0 C0.92683594 0.00451172 1.85367188 0.00902344 2.80859375 0.01367188 C5.08079709 0.02538426 7.35286388 0.04178628 9.625 0.0625 C9.625 0.3925 9.625 0.7225 9.625 1.0625 C5.995 1.3925 2.365 1.7225 -1.375 2.0625 C-1.375 2.3925 -1.375 2.7225 -1.375 3.0625 C5.555 3.5575 5.555 3.5575 12.625 4.0625 C12.625 4.3925 12.625 4.7225 12.625 5.0625 C3.385 5.3925 -5.855 5.7225 -15.375 6.0625 C-15.705 4.4125 -16.035 2.7625 -16.375 1.0625 C-10.89230931 -0.09414737 -5.57160726 -0.05166255 0 0 Z " fill="#4095BE" transform="translate(138.375,21.9375)"/>
<path d="M0 0 C1.41877441 0.43638794 1.41877441 0.43638794 2.86621094 0.8815918 C10.00391492 2.83166071 16.98525462 3.34930161 24.35058594 3.76831055 C25.63191406 3.85016602 26.91324219 3.93202148 28.23339844 4.01635742 C31.3553218 4.21438987 34.47749284 4.40235724 37.60058594 4.58081055 C37.60058594 4.91081055 37.60058594 5.24081055 37.60058594 5.58081055 C22.70242863 6.02753191 8.91321168 6.04603084 -5.39941406 1.58081055 C-2.39941406 -0.41918945 -2.39941406 -0.41918945 0 0 Z " fill="#398EBA" transform="translate(114.3994140625,195.419189453125)"/>
<path d="M0 0 C3 1.0625 3 1.0625 5 2 C4.34 2.66 3.68 3.32 3 4 C-0.0390625 3.9765625 -0.0390625 3.9765625 -3.625 3.625 C-4.81351563 3.51414062 -6.00203125 3.40328125 -7.2265625 3.2890625 C-8.59941406 3.14597656 -8.59941406 3.14597656 -10 3 C-10 2.01 -10 1.02 -10 0 C-6.76565064 -1.61717468 -3.43537949 -0.65686032 0 0 Z " fill="#2382B2" transform="translate(164,25)"/>
<path d="M0 0 C-2.04071515 0.33910994 -4.08262621 0.67102704 -6.125 1 C-7.83042969 1.2784375 -7.83042969 1.2784375 -9.5703125 1.5625 C-12.76137602 1.96956049 -15.78817791 2.07809902 -19 2 C-18.01 1.67 -17.02 1.34 -16 1 C-16 0.34 -16 -0.32 -16 -1 C-14.58622218 -1.36552803 -13.16879424 -1.71695495 -11.75 -2.0625 C-10.96109375 -2.25972656 -10.1721875 -2.45695313 -9.359375 -2.66015625 C-5.31329519 -3.24295251 -3.38512345 -2.25674897 0 0 Z " fill="#DE7E8C" transform="translate(226,13)"/>
<path d="M0 0 C2.97 0 5.94 0 9 0 C9 0.33 9 0.66 9 1 C15.93 1.495 15.93 1.495 23 2 C23 2.33 23 2.66 23 3 C15.08 3 7.16 3 -1 3 C-0.67 2.01 -0.34 1.02 0 0 Z " fill="#2F8CB9" transform="translate(128,24)"/>
<path d="M0 0 C4.50419983 0.85409827 7.03017333 3.47747469 10.25 6.5625 C10.80429688 7.08263672 11.35859375 7.60277344 11.9296875 8.13867188 C13.29256828 9.41930985 14.64711683 10.7088049 16 12 C15.67 12.66 15.34 13.32 15 14 C14.33613281 13.38511719 13.67226562 12.77023438 12.98828125 12.13671875 C12.10527344 11.32847656 11.22226563 10.52023438 10.3125 9.6875 C9.44238281 8.88699219 8.57226562 8.08648437 7.67578125 7.26171875 C5.08479279 4.94271909 5.08479279 4.94271909 2.16796875 3.33203125 C1.45253906 2.89246094 0.73710937 2.45289063 0 2 C0 1.34 0 0.68 0 0 Z " fill="#3086B5" transform="translate(191,40)"/>
<path d="M0 0 C2.90276131 0.88157936 5.22116048 2.05774718 7.82421875 3.61328125 C8.68402344 4.11472656 9.54382813 4.61617187 10.4296875 5.1328125 C12.73988855 6.87875205 13.60111901 8.13367802 14.63671875 10.80078125 C13.85361328 10.20330078 13.85361328 10.20330078 13.0546875 9.59375 C7.17883681 5.36437236 1.69418815 3.30461585 -5.36328125 1.80078125 C-2.36328125 -0.19921875 -2.36328125 -0.19921875 0 0 Z " fill="#DD7C89" transform="translate(254.36328125,10.19921875)"/>
</svg>
